<svg xmlns="http://www.w3.org/2000/svg" xmlns:xlink="http://www.w3.org/1999/xlink" width="500" zoomAndPan="magnify" viewBox="0 0 375 374.999991" height="500" preserveAspectRatio="xMidYMid meet" version="1.0"><defs><clipPath id="23ddc27e5f"><path d="M 74.515625 37.5 L 165 37.5 L 165 289 L 74.515625 289 Z M 74.515625 37.5 " clip-rule="nonzero"/></clipPath><clipPath id="d0f28d9e48"><path d="M 176 86 L 267 86 L 267 337.5 L 176 337.5 Z M 176 86 " clip-rule="nonzero"/></clipPath></defs><g clip-path="url(#23ddc27e5f)"><path fill="#ffffff" d="M 74.589844 178.691406 L 74.589844 147.347656 C 80.953125 147 85.753906 146.039062 88.980469 144.472656 C 92.203125 142.902344 94.996094 140.273438 97.351562 136.570312 C 99.707031 132.871094 101.320312 128.234375 102.191406 122.660156 C 102.886719 118.484375 103.238281 111.210938 103.238281 100.851562 C 103.238281 83.960938 104.023438 72.179688 105.589844 65.523438 C 107.164062 58.863281 109.996094 53.507812 114.09375 49.457031 C 118.191406 45.410156 124.167969 42.210938 132.015625 39.859375 C 137.332031 38.292969 145.707031 37.507812 157.128906 37.507812 L 164.0625 37.507812 L 164.0625 68.726562 C 154.382812 68.726562 148.167969 69.269531 145.425781 70.355469 C 142.675781 71.445312 140.648438 73.097656 139.339844 75.316406 C 138.03125 77.535156 137.378906 81.347656 137.378906 86.746094 C 137.378906 92.230469 136.984375 102.636719 136.199219 117.960938 C 135.765625 126.578125 134.632812 133.566406 132.800781 138.921875 C 130.96875 144.277344 128.632812 148.695312 125.800781 152.175781 C 122.96875 155.660156 118.628906 159.273438 112.785156 163.019531 C 117.933594 165.980469 122.140625 169.441406 125.410156 173.402344 C 128.679688 177.363281 131.183594 182.171875 132.929688 187.832031 C 134.675781 193.492188 135.808594 201.070312 136.332031 210.554688 C 136.941406 225.011719 137.246094 234.238281 137.246094 238.246094 C 137.246094 243.992188 137.945312 247.996094 139.339844 250.261719 C 140.734375 252.523438 142.851562 254.246094 145.683594 255.421875 C 148.515625 256.59375 154.644531 257.183594 164.0625 257.183594 L 164.0625 288.527344 L 157.128906 288.527344 C 145.359375 288.527344 136.332031 287.589844 130.050781 285.71875 C 123.773438 283.847656 118.476562 280.734375 114.160156 276.382812 C 109.84375 272.027344 106.941406 266.648438 105.460938 260.25 C 103.976562 253.851562 103.238281 243.773438 103.238281 230.019531 C 103.238281 214 102.539062 203.589844 101.144531 198.800781 C 99.226562 191.835938 96.324219 186.851562 92.445312 183.847656 C 88.5625 180.84375 82.613281 179.125 74.589844 178.691406 " fill-opacity="1" fill-rule="nonzero"/></g><path fill="#7ed957" d="M 273.042969 102.535156 L 252.566406 102.535156 L 252.566406 82.09375 L 273.042969 82.09375 L 273.042969 102.535156 " fill-opacity="1" fill-rule="nonzero"/><path fill="#7ed957" d="M 268.207031 143.414062 L 252.566406 143.414062 L 252.566406 127.800781 L 268.207031 127.800781 L 268.207031 143.414062 " fill-opacity="1" fill-rule="nonzero"/><g clip-path="url(#d0f28d9e48)"><path fill="#7ed957" d="M 208.644531 118.152344 L 208.644531 102.535156 L 224.289062 102.535156 L 224.289062 118.152344 Z M 248.4375 191.171875 C 244.511719 188.167969 241.589844 183.183594 239.671875 176.21875 C 238.617188 172.289062 237.988281 164.757812 237.785156 153.636719 L 224.289062 153.636719 L 224.289062 133.195312 L 237.484375 133.195312 C 237.15625 125.3125 236.46875 119.171875 235.417969 114.769531 C 233.894531 108.371094 230.992188 102.972656 226.722656 98.574219 C 222.449219 94.179688 217.171875 91.066406 210.894531 89.234375 C 204.613281 87.40625 195.589844 86.496094 183.816406 86.496094 L 176.882812 86.496094 L 176.882812 117.707031 C 186.738281 117.707031 193.082031 118.296875 195.914062 119.46875 C 198.75 120.648438 200.710938 122.324219 201.804688 124.5 C 202.890625 126.675781 203.480469 131.027344 203.570312 137.558594 C 204.003906 158.28125 204.699219 171.691406 205.660156 177.785156 C 207.140625 186.667969 209.933594 193.976562 214.03125 199.726562 C 216.996094 203.730469 221.707031 207.824219 228.160156 212.003906 C 223.1875 214.875 219.109375 218.207031 215.929688 221.996094 C 212.746094 225.78125 210.195312 230.398438 208.277344 235.839844 C 206.359375 241.28125 205.183594 248.527344 204.746094 257.582031 C 204.046875 272.558594 203.675781 282.699219 203.636719 288.011719 C 203.589844 293.324219 202.890625 297.089844 201.539062 299.3125 C 200.1875 301.53125 198.074219 303.230469 195.195312 304.40625 C 192.316406 305.582031 186.210938 306.167969 176.882812 306.167969 L 176.882812 337.511719 L 183.816406 337.511719 C 195.238281 337.511719 203.613281 336.726562 208.929688 335.160156 C 216.867188 332.808594 222.882812 329.613281 226.984375 325.5625 C 231.082031 321.511719 233.894531 316.136719 235.417969 309.433594 C 236.945312 302.726562 237.710938 290.929688 237.710938 274.039062 C 237.710938 263.765625 238.058594 256.539062 238.753906 252.359375 C 239.714844 246.789062 241.351562 242.152344 243.660156 238.449219 C 245.96875 234.75 248.738281 232.117188 251.96875 230.550781 C 255.191406 228.980469 259.992188 228.023438 266.355469 227.675781 L 266.355469 196.328125 C 258.332031 195.894531 252.359375 194.175781 248.4375 191.171875 " fill-opacity="1" fill-rule="nonzero"/></g><path fill="#7ed957" d="M 312.960938 62.832031 L 297.316406 62.832031 L 297.316406 47.214844 L 312.960938 47.214844 L 312.960938 62.832031 " fill-opacity="1" fill-rule="nonzero"/><path fill="#7ed957" d="M 234.523438 82.09375 L 205.324219 82.09375 L 205.324219 52.9375 L 234.523438 52.9375 L 234.523438 82.09375 " fill-opacity="1" fill-rule="nonzero"/></svg>